<svg width="62" height="24" viewBox="0 0 62 24" fill="none" xmlns="http://www.w3.org/2000/svg">
<path fill-rule="evenodd" clip-rule="evenodd" d="M48.2397 15.809C49.8377 15.809 51.1374 14.494 51.1374 12.8777C51.1374 11.2613 49.8377 9.94631 48.2397 9.94631C46.6421 9.94631 45.3421 11.2613 45.3421 12.8777C45.3421 14.494 46.6421 15.809 48.2397 15.809ZM51.1374 5.59277H51.216H52.5103V17.2076H51.1374V16.0479C50.3452 16.7907 49.3236 17.1977 48.2397 17.1977C45.8852 17.1977 43.9695 15.2597 43.9695 12.8777C43.9695 10.4955 45.8852 8.55757 48.2397 8.55757C49.3236 8.55757 50.3452 8.96445 51.1374 9.70735V5.59277ZM19.7705 15.7578C21.3682 15.7578 22.6681 14.4428 22.6681 12.8265C22.6681 11.2102 21.3682 9.8952 19.7705 9.8952C18.1726 9.8952 16.8728 11.2102 16.8728 12.8265C16.8728 14.4428 18.1726 15.7578 19.7705 15.7578ZM16.8728 9.65633C17.665 8.91343 18.6868 8.50649 19.7705 8.50649C22.1251 8.50649 24.0408 10.4444 24.0408 12.8265C24.0408 15.2085 22.1251 17.1465 19.7705 17.1465C18.6868 17.1465 17.665 16.7396 16.8728 15.9967V20.1113H15.5V8.49648H16.8728V9.65633ZM26.6601 12.152C26.9691 10.8393 28.1202 9.89668 29.4334 9.89668C30.7293 9.89668 31.8149 10.8191 32.1042 12.152H26.6601ZM29.4334 8.49648C27.1139 8.49648 25.2271 10.4505 25.2271 12.852C25.2271 15.2537 27.1139 17.2076 29.4334 17.2076C30.7322 17.2076 31.9243 16.7041 32.7044 15.8261L33.1097 15.3698L33.162 15.3109L33.1051 15.2566L32.2239 14.4173L32.1671 14.363L32.1146 14.4219L31.7093 14.8783C31.1923 15.4601 30.3415 15.8075 29.4334 15.8075C28.1202 15.8075 26.9691 14.8649 26.6601 13.5521H33.5305V12.852C33.5305 10.4097 31.7308 8.49648 29.4334 8.49648ZM60.6271 12.8521C60.6271 14.4817 59.3274 15.8074 57.7295 15.8074C56.1318 15.8074 54.8318 14.4817 54.8318 12.8521C54.8318 11.2224 56.1318 9.89663 57.7295 9.89663C59.3274 9.89663 60.6271 11.2224 60.6271 12.8521ZM57.7295 8.49648C55.3749 8.49648 53.4592 10.4504 53.4592 12.8521C53.4592 15.2537 55.3749 17.2076 57.7295 17.2076C60.0843 17.2076 62 15.2537 62 12.8521C62 10.4504 60.0843 8.49648 57.7295 8.49648ZM38.6312 8.49648C37.6773 8.49648 36.7686 8.87144 36.0533 9.55627V8.49648H34.7168V17.2076H36.0533V12.7622C36.0533 11.1762 37.2098 9.88575 38.6312 9.88575C40.0529 9.88575 41.2096 11.1762 41.2096 12.7622V17.2076H42.5458V12.7622C42.5458 10.4101 40.7897 8.49648 38.6312 8.49648Z" fill="#1A2022"/>
<path fill-rule="evenodd" clip-rule="evenodd" d="M0 13.8886H6.4583V20.4072L12.9167 13.8886V7.37012H6.4583L0 13.8886Z" fill="#FF4876"/>
</svg>
