<svg width="42" height="43" viewBox="0 0 42 43" fill="none" xmlns="http://www.w3.org/2000/svg">
<rect x="3.1999" y="3.8" width="35.2" height="35.2" rx="17.6" fill="#E5E7EB"/>
<path d="M22.6665 12.3185V16.1736C22.6665 16.6963 22.6665 16.9577 22.7682 17.1574C22.8577 17.333 23.0005 17.4758 23.1761 17.5652C23.3757 17.667 23.6371 17.667 24.1598 17.667H28.015M22.6665 26.0669H17.0665M24.5331 22.3336H17.0665M28.2665 19.5226V26.2536C28.2665 27.8217 28.2665 28.6058 27.9613 29.2047C27.6928 29.7316 27.2645 30.1599 26.7376 30.4284C26.1387 30.7336 25.3546 30.7336 23.7865 30.7336H17.8131C16.245 30.7336 15.4609 30.7336 14.862 30.4284C14.3351 30.1599 13.9068 29.7316 13.6383 29.2047C13.3331 28.6058 13.3331 27.8217 13.3331 26.2536V16.5469C13.3331 14.9787 13.3331 14.1947 13.6383 13.5957C13.9068 13.0689 14.3351 12.6405 14.862 12.3721C15.4609 12.0669 16.245 12.0669 17.8131 12.0669H20.8108C21.4956 12.0669 21.8381 12.0669 22.1603 12.1443C22.446 12.2128 22.7191 12.326 22.9697 12.4795C23.2522 12.6527 23.4944 12.8948 23.9786 13.3791L26.9543 16.3547C27.4386 16.839 27.6807 17.0811 27.8539 17.3637C28.0074 17.6142 28.1205 17.8873 28.1891 18.173C28.2665 18.4953 28.2665 18.8377 28.2665 19.5226Z" stroke="#1F2937" stroke-width="2" stroke-linecap="round" stroke-linejoin="round"/>
<rect x="3.1999" y="3.8" width="35.2" height="35.2" rx="17.6" stroke="#F3F4F6" stroke-width="6.4"/>
</svg>
