<?xml version="1.0" encoding="utf-8"?>
<!-- Generator: Adobe Illustrator 26.0.0, SVG Export Plug-In . SVG Version: 6.00 Build 0)  -->
<svg version="1.1" id="Layer_1" xmlns="http://www.w3.org/2000/svg" xmlns:xlink="http://www.w3.org/1999/xlink" x="0px" y="0px"
	 viewBox="0 0 720 174.04" style="enable-background:new 0 0 720 174.04;" xml:space="preserve">
<style type="text/css">
	.st0{fill:#213E7B;}
	.st1{fill:#F7981D;}
	.st2{fill:#FBB04C;}
	.st3{fill:#DB8127;}
	.st4{fill:#DC8327;}
</style>
<path class="st0" d="M36.51,114.22H15.99V11.67h71.8v20.53H36.51v20.52h30.75v20.52H36.51V114.22z"/>
<path class="st0" d="M178.06,83.47c0,4.25-0.81,8.23-2.43,11.94c-1.62,3.72-3.83,6.97-6.62,9.76c-2.79,2.79-6.04,4.99-9.76,6.61
	c-3.72,1.62-7.7,2.43-11.94,2.43H96.03V11.67h51.28c4.24,0,8.22,0.81,11.94,2.43c3.72,1.62,6.97,3.83,9.76,6.62
	c2.79,2.79,4.99,6.04,6.62,9.76c1.62,3.72,2.43,7.7,2.43,11.94c0,1.91-0.26,3.86-0.79,5.86c-0.52,2-1.26,3.93-2.22,5.79
	c-0.95,1.86-2.1,3.55-3.43,5.08c-1.34,1.53-2.81,2.79-4.43,3.79c1.67,0.91,3.17,2.13,4.51,3.68c1.33,1.55,2.48,3.25,3.43,5.11
	c0.95,1.86,1.68,3.8,2.18,5.83C177.81,79.6,178.06,81.56,178.06,83.47z M116.56,52.72h30.75c1.43,0,2.76-0.26,4-0.79
	c1.24-0.52,2.32-1.25,3.25-2.18c0.93-0.93,1.66-2.03,2.18-3.29c0.52-1.26,0.79-2.61,0.79-4.04c0-1.43-0.26-2.76-0.79-4.01
	c-0.53-1.24-1.25-2.32-2.18-3.25c-0.93-0.93-2.01-1.66-3.25-2.18c-1.24-0.52-2.57-0.79-4-0.79h-30.75V52.72z M116.56,93.7h30.75
	c1.43,0,2.76-0.26,4-0.79c1.24-0.52,2.32-1.25,3.25-2.18c0.93-0.93,1.66-2.01,2.18-3.25c0.52-1.24,0.79-2.57,0.79-4.01
	c0-1.43-0.26-2.76-0.79-4c-0.53-1.24-1.25-2.32-2.18-3.25c-0.93-0.93-2.01-1.66-3.25-2.18c-1.24-0.52-2.57-0.79-4-0.79h-30.75V93.7z
	"/>
<path class="st0" d="M390.07,83.47c0,4.25-0.81,8.23-2.43,11.94c-1.62,3.72-3.83,6.97-6.62,9.76c-2.79,2.79-6.04,4.99-9.76,6.61
	c-3.72,1.62-7.7,2.43-11.94,2.43h-51.28V11.67h51.28c4.24,0,8.22,0.81,11.94,2.43c3.72,1.62,6.97,3.83,9.76,6.62
	c2.79,2.79,4.99,6.04,6.62,9.76c1.62,3.72,2.43,7.7,2.43,11.94c0,1.91-0.26,3.86-0.79,5.86c-0.52,2-1.26,3.93-2.22,5.79
	c-0.95,1.86-2.1,3.55-3.43,5.08c-1.34,1.53-2.81,2.79-4.43,3.79c1.67,0.91,3.17,2.13,4.51,3.68c1.33,1.55,2.48,3.25,3.43,5.11
	c0.95,1.86,1.68,3.8,2.18,5.83C389.81,79.6,390.07,81.56,390.07,83.47z M328.56,52.72h30.75c1.43,0,2.76-0.26,4-0.79
	c1.24-0.52,2.32-1.25,3.25-2.18c0.93-0.93,1.66-2.03,2.18-3.29c0.52-1.26,0.79-2.61,0.79-4.04c0-1.43-0.26-2.76-0.79-4.01
	c-0.53-1.24-1.25-2.32-2.18-3.25c-0.93-0.93-2.01-1.66-3.25-2.18c-1.24-0.52-2.57-0.79-4-0.79h-30.75V52.72z M328.56,93.7h30.75
	c1.43,0,2.76-0.26,4-0.79c1.24-0.52,2.32-1.25,3.25-2.18c0.93-0.93,1.66-2.01,2.18-3.25c0.52-1.24,0.79-2.57,0.79-4.01
	c0-1.43-0.26-2.76-0.79-4c-0.53-1.24-1.25-2.32-2.18-3.25c-0.93-0.93-2.01-1.66-3.25-2.18c-1.24-0.52-2.57-0.79-4-0.79h-30.75V93.7z
	"/>
<path class="st0" d="M568.46,114.22H508.6V88.13h59.86c1.79,0,3.32-0.64,4.6-1.92c1.28-1.28,1.92-2.81,1.92-4.6
	c0-1.86-0.64-3.07-1.92-3.65c-1.28-0.58-2.82-0.86-4.6-0.86h-27.25c-4.54,0-8.79-0.86-12.76-2.59c-3.97-1.73-7.42-4.08-10.36-7.05
	c-2.94-2.97-5.26-6.44-6.96-10.41c-1.69-3.97-2.54-8.22-2.54-12.76c0-4.54,0.85-8.79,2.54-12.76c1.69-3.96,4.01-7.42,6.96-10.36
	c2.94-2.94,6.39-5.26,10.36-6.96c3.96-1.69,8.22-2.54,12.76-2.54h53.05v26.09h-53.05c-1.79,0-3.33,0.64-4.6,1.92
	c-1.28,1.28-1.92,2.82-1.92,4.6c0,1.86,0.64,3.44,1.92,4.75c1.28,1.31,2.81,1.97,4.6,1.97h27.25c4.48,0,8.7,0.75,12.66,2.26
	c3.96,1.5,7.42,3.6,10.36,6.28c2.94,2.69,5.28,5.92,7,9.69c1.73,3.78,2.59,7.9,2.59,12.38c0,4.54-0.86,8.78-2.59,12.71
	c-1.73,3.93-4.06,7.39-7,10.36c-2.94,2.97-6.4,5.31-10.36,7C577.16,113.37,572.94,114.22,568.46,114.22z"/>
<path class="st0" d="M671.4,114.22h-59.86V88.13h59.86c1.79,0,3.32-0.64,4.6-1.92c1.28-1.28,1.92-2.81,1.92-4.6
	c0-1.86-0.64-3.07-1.92-3.65c-1.28-0.58-2.82-0.86-4.6-0.86h-27.25c-4.54,0-8.79-0.86-12.76-2.59c-3.97-1.73-7.42-4.08-10.36-7.05
	c-2.94-2.97-5.26-6.44-6.96-10.41c-1.69-3.97-2.54-8.22-2.54-12.76c0-4.54,0.85-8.79,2.54-12.76c1.69-3.96,4.01-7.42,6.96-10.36
	c2.94-2.94,6.39-5.26,10.36-6.96c3.96-1.69,8.22-2.54,12.76-2.54h53.05v26.09h-53.05c-1.79,0-3.33,0.64-4.6,1.92
	c-1.28,1.28-1.92,2.82-1.92,4.6c0,1.86,0.64,3.44,1.92,4.75c1.28,1.31,2.81,1.97,4.6,1.97h27.25c4.48,0,8.7,0.75,12.66,2.26
	c3.97,1.5,7.42,3.6,10.36,6.28c2.94,2.69,5.28,5.92,7,9.69c1.73,3.78,2.59,7.9,2.59,12.38c0,4.54-0.86,8.78-2.59,12.71
	c-1.73,3.93-4.06,7.39-7,10.36c-2.94,2.97-6.4,5.31-10.36,7C680.09,113.37,675.87,114.22,671.4,114.22z"/>
<g>
	<path class="st1" d="M414.6,151.68h-15.31v-30.08h8.28v23.35h7.51L414.6,151.68z"/>
	<path class="st1" d="M426.42,139.98c0-4.25,0.82-7.32,2.45-9.23c1.63-1.91,4.18-2.86,7.65-2.86c3.47,0,6,0.94,7.58,2.81
		c1.58,1.87,2.37,4.95,2.37,9.23s-0.77,7.39-2.32,9.32c-1.55,1.94-4.09,2.91-7.61,2.91c-3.52,0-6.09-0.97-7.7-2.91
		C427.22,147.32,426.42,144.22,426.42,139.98z M438.07,135.4c-0.21-0.64-0.73-0.97-1.57-0.97c-0.84,0-1.37,0.32-1.6,0.97
		c-0.23,0.65-0.34,2-0.34,4.07v1.16c0,2.29,0.11,3.78,0.34,4.46c0.23,0.68,0.75,1.02,1.57,1.02c0.82,0,1.35-0.34,1.57-1.02
		c0.23-0.68,0.34-2.07,0.34-4.17v-1.4C438.38,137.42,438.28,136.04,438.07,135.4z"/>
	<path class="st1" d="M468.61,127.89h11.43v5.42h-3.49v0.24c1.03,0.9,1.55,2.08,1.55,3.54c0,5.17-2.92,7.75-8.77,7.75h-2.33
		c-0.58,0-0.87,0.27-0.87,0.8c0,0.53,0.27,0.8,0.82,0.8h6.59c3.71,0,5.57,1.62,5.57,4.85c0,2.65-0.89,4.56-2.66,5.74
		c-1.78,1.18-4.23,1.77-7.36,1.77c-3.13,0-5.5-0.33-7.1-0.99c-1.6-0.66-2.4-1.9-2.4-3.71c0-1,0.63-1.84,1.89-2.52v-0.19
		c-1.58-0.87-2.37-2.13-2.37-3.78c0-1.94,1.24-3.41,3.73-4.41c-1.16-0.84-2.03-1.82-2.59-2.93c-0.57-1.11-0.85-2.59-0.85-4.43
		c0-2.55,0.83-4.51,2.49-5.89C463.56,128.58,465.8,127.89,468.61,127.89z M466.67,153.81h4.99c0.58,0,0.87-0.26,0.87-0.77v-0.19
		c0-0.48-0.29-0.73-0.87-0.73h-4.99c-0.52,0-0.78,0.26-0.78,0.78v0.19C465.9,153.56,466.16,153.81,466.67,153.81z M470.38,134.94
		c-0.24-0.47-0.69-0.7-1.33-0.7c-0.65,0-1.09,0.23-1.33,0.7c-0.24,0.47-0.36,1.19-0.36,2.15c0,1.97,0.58,2.96,1.74,2.96
		c1.1,0,1.65-0.95,1.65-2.86C470.74,136.16,470.62,135.41,470.38,134.94z"/>
	<path class="st1" d="M492.93,126.87c-0.68-0.58-1.02-1.52-1.02-2.81c0-1.29,0.34-2.24,1.02-2.86c0.68-0.61,1.79-0.92,3.34-0.92
		c1.55,0,2.66,0.31,3.34,0.92c0.68,0.61,1.02,1.56,1.02,2.83c0,1.28-0.34,2.21-1.02,2.81c-0.68,0.6-1.79,0.9-3.34,0.9
		C494.72,127.74,493.61,127.45,492.93,126.87z M500.29,151.68h-7.99v-22.96h7.99V151.68z"/>
	<path class="st1" d="M512.74,135.33c0-2.34,0.72-4.17,2.16-5.47c1.44-1.31,3.42-1.96,5.93-1.96c2.52,0,5.07,0.32,7.65,0.97
		l-0.82,6.73c-3.29-0.74-5.51-1.11-6.64-1.11c-0.68,0-1.02,0.28-1.02,0.82c0,0.36,0.37,0.68,1.11,0.97c2.58,0.94,4.53,2,5.84,3.2
		c1.31,1.2,1.96,2.99,1.96,5.38c0,2.39-0.61,4.21-1.84,5.45c-1.23,1.24-3.11,1.87-5.64,1.87c-2.54,0-5.06-0.32-7.58-0.97l0.53-6.54
		c3.23,0.87,5.32,1.31,6.27,1.31c0.95,0,1.43-0.23,1.43-0.68c0-0.45-0.36-0.81-1.07-1.07c-2.87-1.1-4.97-2.27-6.3-3.51
		C513.4,139.46,512.74,137.67,512.74,135.33z"/>
	<path class="st1" d="M554.3,151.72c-2.39,0.29-4.46,0.44-6.23,0.44c-1.76,0-3.13-0.46-4.12-1.38c-0.99-0.92-1.48-2.51-1.48-4.77
		v-11.24h-2.33v-6.01h2.71l0.44-4.46h7.31v4.46h4.31l-0.34,6.01h-4.02v9.64c0,0.68,0.32,1.02,0.97,1.02c0.06,0,1.07-0.05,3-0.15
		L554.3,151.72z"/>
	<path class="st1" d="M568.06,126.87c-0.68-0.58-1.02-1.52-1.02-2.81c0-1.29,0.34-2.24,1.02-2.86c0.68-0.61,1.79-0.92,3.34-0.92
		c1.55,0,2.66,0.31,3.34,0.92c0.68,0.61,1.02,1.56,1.02,2.83c0,1.28-0.34,2.21-1.02,2.81c-0.68,0.6-1.79,0.9-3.34,0.9
		C569.85,127.74,568.74,127.45,568.06,126.87z M575.42,151.68h-7.99v-22.96h7.99V151.68z"/>
	<path class="st1" d="M599.28,134.96c-0.95,0-1.59,0.43-1.91,1.28c-0.32,0.86-0.48,2.19-0.48,4c0,1.81,0.15,3.12,0.46,3.92
		c0.31,0.81,0.95,1.21,1.94,1.21c0.98,0,2.27-0.18,3.85-0.53l0.87,6.2c-2.23,0.74-4.21,1.11-5.96,1.11c-3.07,0-5.39-1.03-6.95-3.1
		c-1.57-2.07-2.35-4.96-2.35-8.67c0-3.71,0.81-6.73,2.42-9.03c1.61-2.31,3.96-3.46,7.02-3.46c2.29,0,4.36,0.39,6.2,1.16l-0.87,7.12
		C601.65,135.37,600.23,134.96,599.28,134.96z"/>
	<path class="st1" d="M615.24,135.33c0-2.34,0.72-4.17,2.16-5.47c1.44-1.31,3.42-1.96,5.93-1.96s5.07,0.32,7.65,0.97l-0.82,6.73
		c-3.29-0.74-5.51-1.11-6.64-1.11c-0.68,0-1.02,0.28-1.02,0.82c0,0.36,0.37,0.68,1.11,0.97c2.58,0.94,4.53,2,5.84,3.2
		s1.96,2.99,1.96,5.38c0,2.39-0.61,4.21-1.84,5.45c-1.23,1.24-3.11,1.87-5.64,1.87c-2.54,0-5.06-0.32-7.58-0.97l0.53-6.54
		c3.23,0.87,5.32,1.31,6.27,1.31c0.95,0,1.43-0.23,1.43-0.68c0-0.45-0.36-0.81-1.07-1.07c-2.87-1.1-4.97-2.27-6.3-3.51
		C615.9,139.46,615.24,137.67,615.24,135.33z"/>
</g>
<g>
	<g>
		<path class="st1" d="M316.26,149.32l-2.18,0.61l-4.34,1.27c-2.95,0.61-5.83,1.48-8.81,1.89c-5.89,1.12-11.86,1.66-17.82,1.69
			c-5.96,0.06-11.94-0.37-17.85-1.34c-5.91-0.97-11.75-2.45-17.51-4.3c-5.73-1.91-11.39-4.19-16.87-6.94
			c-5.52-2.68-10.86-5.77-16.03-9.3c4.07,4.79,8.99,8.82,14.14,12.48c2.6,1.82,5.32,3.45,8.07,5.05c2.78,1.55,5.66,2.93,8.58,4.21
			c11.7,5.14,24.61,7.87,37.53,7.71c3.23,0.03,6.45-0.29,9.66-0.56c3.19-0.47,6.39-0.88,9.52-1.65c3.16-0.61,6.22-1.64,9.29-2.53
			l4.5-1.67l2.23-0.87l2.18-1c11.65-5.2,22.24-12.42,31.19-21.17c-10.86,6.23-21.89,11.72-33.35,15.66L316.26,149.32z"/>
		<path class="st1" d="M356.26,126.68c-3.06-0.03-6.13,0.1-9.19,0.44c-1.53,0.17-3.06,0.38-4.6,0.68c-1.53,0.32-3.06,0.62-4.6,1.15
			c1.53,0.53,3.06,0.83,4.6,1.15c1.53,0.29,3.06,0.51,4.6,0.68c2.33,0.26,4.67,0.36,7,0.4c0.07,2.06,0.2,4.12,0.44,6.18
			c0.18,1.4,0.39,2.8,0.67,4.21c0.3,1.4,0.6,2.8,1.08,4.21c0.48-1.4,0.78-2.8,1.08-4.21c0.28-1.4,0.49-2.8,0.67-4.21
			c0.33-2.8,0.5-5.61,0.52-8.41l0.02-2.25L356.26,126.68z"/>
	</g>
</g>
<path class="st0" d="M267.55,36.74c-2.15-4.98-5.08-9.33-8.8-13.05c-3.72-3.72-8.07-6.65-13.05-8.8
	c-4.98-2.15-10.31-3.22-15.98-3.22c-5.67,0-11,1.07-15.98,3.22c-4.98,2.14-9.32,5.08-13.02,8.8c-3.7,3.72-6.61,8.07-8.76,13.05
	c-2.15,4.98-3.22,10.31-3.22,15.98v61.5h20.52V85.84h40.98v28.38h20.52v-61.5C270.77,47.04,269.69,41.72,267.55,36.74z M209.26,52.7
	c0-2.83,0.54-5.5,1.61-7.99c1.07-2.49,2.53-4.66,4.38-6.52c1.85-1.86,4.01-3.32,6.5-4.39c2.49-1.07,5.15-1.61,7.98-1.61
	c2.83,0,5.5,0.54,7.99,1.61c2.49,1.07,4.66,2.54,6.52,4.39c1.86,1.86,3.32,4.03,4.39,6.52c1.07,2.49,1.61,5.15,1.61,7.99v1.28v7.14
	h-40.98V54.8V52.7z"/>
<g>
	<path class="st0" d="M498.29,69.27v-3.41h-17.73h-1.97h-9.46v3.36h-0.58c-1.84,0-3.61,0.69-4.96,1.92c-0.08,0.07-0.08,0.07,0,0
		h36.29l0,0L498.29,69.27z M494.02,69.23v-2.72h3.63v2.72v0.02h-3.63V69.23z M489.03,69.23v-2.72h4.35v2.72v0.02h-4.35V69.23z
		 M484.04,69.23v-2.72h4.35v2.72v0.02h-4.35V69.23z M479.05,69.23v-2.72h4.35v2.72v0.02h-4.35V69.23z M474.05,69.23v-2.72h4.35v2.72
		v0.02h-4.35V69.23z M469.78,69.23v-2.72h3.63v2.72v0.02h-3.63V69.23z"/>
	<path class="st0" d="M500.97,72.41h-28.62H472h-9.67l-3.78,3.78h-7.86l-4.63,6.16h-12.95h-1.06c-0.2-0.19-0.39-0.39-0.58-0.59
		c-2.2-2.35-3.94-5.13-5.21-8.33c-1.27-3.2-1.9-6.67-1.9-10.41c0-3.98,0.63-7.59,1.9-10.82c1.27-3.23,3-6,5.21-8.33
		c2.2-2.32,4.8-4.1,7.79-5.34c2.99-1.24,6.17-1.86,9.55-1.86c3.38,0,6.56,0.62,9.55,1.86c2.99,1.24,5.6,3.02,7.83,5.34
		c2.23,2.32,4,5.1,5.3,8.33c1.3,3.23,1.95,6.84,1.95,10.82c0,0.85-0.03,1.68-0.09,2.49h24.94c0.03-0.82,0.05-1.65,0.05-2.49
		c0-7.73-1.3-14.74-3.89-21.05c-2.6-6.31-6.13-11.71-10.59-16.21c-4.47-4.5-9.7-7.97-15.71-10.41c-6.01-2.45-12.45-3.67-19.33-3.67
		c-6.82,0-13.23,1.3-19.24,3.89c-6.01,2.6-11.26,6.17-15.75,10.73c-4.5,4.56-8.04,9.97-10.64,16.25c-2.6,6.28-3.89,13.1-3.89,20.46
		c0,7.24,1.3,13.99,3.89,20.24c2.6,6.25,6.14,11.65,10.64,16.21c4.5,4.56,9.75,8.15,15.75,10.78c6.01,2.63,12.42,3.94,19.24,3.94
		c6.88,0,13.32-1.31,19.33-3.94c6.01-2.63,11.24-6.22,15.71-10.78c2.49-2.54,4.68-5.33,6.58-8.39c-0.71,0-1.41,0-2.12,0.04
		c-1.66,0.07-3.29,0.27-4.83,0.71c-1.62,0.47-3.22,0.96-4.89,1.39c-1.66,0.41-3.41,0.71-5.13,0.54c1.68-0.4,3.23-0.95,4.81-1.57
		c1.57-0.6,3.18-1.19,4.82-1.67c1.73-0.49,3.51-0.6,5.24-0.47c0.85,0.07,1.69,0.19,2.51,0.36c0.42-0.7,0.82-1.41,1.21-2.13
		c-0.75,0-1.49,0.03-2.24,0.07c-1.52,0.08-3.03,0.2-4.53,0.43c-1.5,0.2-2.98,0.48-4.45,0.81c-2.98,0.7-5.94,1.44-8.93,2.19
		c-1.5,0.37-3.03,0.72-4.62,0.95c-1.59,0.22-3.19,0.3-4.76,0.31c-1.57,0-3.17-0.08-4.76-0.31c-1.59-0.23-3.12-0.58-4.62-0.95
		c-2.99-0.75-5.95-1.49-8.93-2.19c-1.47-0.33-2.95-0.61-4.45-0.81c-1.5-0.23-3.01-0.35-4.53-0.43c-1.52-0.1-3.04-0.09-4.57-0.04
		c-1.53,0.05-3.06,0.17-4.58,0.39c1.47-0.48,2.99-0.8,4.52-1.05c1.53-0.25,3.08-0.4,4.64-0.47c2.1-0.09,4.2-0.03,6.3,0.17
		c0.12,0.01,0.25,0.02,0.37,0.04c0.17,0.02,0.33,0.03,0.5,0.05c0.3,0.03,0.59,0.07,0.89,0.11c0.09,0.01,0.19,0.03,0.28,0.04
		c0.34,0.05,0.67,0.1,1.01,0.16c0.56,0.09,1.12,0.19,1.67,0.29c0.11,0.02,0.21,0.04,0.32,0.06c0.55,0.1,1.09,0.2,1.63,0.31
		c0.07,0.01,0.14,0.03,0.21,0.04c0.56,0.11,1.12,0.23,1.69,0.34c0,0,0.01,0,0.01,0c1.18,0.25,2.36,0.5,3.54,0.76
		c1.5,0.32,2.97,0.64,4.43,0.82c1.46,0.19,2.93,0.26,4.44,0.25c1.5,0,2.98-0.06,4.44-0.25c1.46-0.18,2.93-0.5,4.43-0.82
		c2.99-0.65,6.02-1.3,9.07-1.81c3.09-0.53,6.23-0.72,9.34-0.58c0.91,0.04,1.81,0.12,2.71,0.22c0.33-0.64,0.65-1.29,0.95-1.95
		c4.15-4.58,8.94-9.28,8.94-9.28V74.1L500.97,72.41z M486.76,75.13c0,0.02,0,0.03-0.01,0.05c-0.01,0.04-0.02,0.09-0.03,0.13
		c0,0.01-0.01,0.03-0.01,0.04c-0.01,0.05-0.03,0.1-0.05,0.15c0,0,0,0.01,0,0.01c-0.22,0.54-0.75,0.93-1.38,0.93
		s-1.16-0.38-1.38-0.93c0,0,0-0.01,0-0.01c-0.02-0.05-0.04-0.1-0.05-0.15c0-0.01-0.01-0.03-0.01-0.04
		c-0.01-0.04-0.02-0.09-0.03-0.13c0-0.02-0.01-0.03-0.01-0.05c-0.01-0.06-0.01-0.12-0.01-0.18c0-0.82,0.67-1.49,1.49-1.49
		c0.82,0,1.49,0.67,1.49,1.49C486.77,75.01,486.76,75.07,486.76,75.13z M491.83,75.13c0,0.02,0,0.03-0.01,0.05
		c-0.01,0.04-0.02,0.09-0.03,0.13c0,0.01-0.01,0.03-0.01,0.04c-0.01,0.05-0.03,0.1-0.05,0.15c0,0,0,0.01,0,0.01
		c-0.22,0.54-0.75,0.93-1.38,0.93c-0.62,0-1.16-0.38-1.38-0.93c0,0,0-0.01,0-0.01c-0.02-0.05-0.04-0.1-0.05-0.15
		c0-0.01-0.01-0.03-0.01-0.04c-0.01-0.04-0.02-0.09-0.03-0.13c0-0.02-0.01-0.03-0.01-0.05c-0.01-0.06-0.01-0.12-0.01-0.18
		c0-0.82,0.67-1.49,1.49-1.49s1.49,0.67,1.49,1.49C491.84,75.01,491.84,75.07,491.83,75.13z M496.9,75.13c0,0.02,0,0.03-0.01,0.05
		c-0.01,0.04-0.02,0.09-0.03,0.13c0,0.01-0.01,0.03-0.01,0.04c-0.01,0.05-0.03,0.1-0.05,0.15c0,0,0,0.01,0,0.01
		c-0.22,0.54-0.75,0.93-1.38,0.93c-0.62,0-1.16-0.38-1.38-0.93c0,0,0-0.01,0-0.01c-0.02-0.05-0.04-0.1-0.05-0.15
		c0-0.01-0.01-0.03-0.01-0.04c-0.01-0.04-0.02-0.09-0.03-0.13c0-0.02-0.01-0.03-0.01-0.05c-0.01-0.06-0.01-0.12-0.01-0.18
		c0-0.82,0.67-1.49,1.49-1.49s1.49,0.67,1.49,1.49C496.92,75.01,496.91,75.07,496.9,75.13z"/>
	<path class="st1" d="M425.47,74.81c-0.01-0.03-0.03-0.06-0.04-0.09h0.01C425.44,74.75,425.45,74.78,425.47,74.81z"/>
	<rect x="436.23" y="75.99" class="st2" width="6.71" height="5.5"/>
	<path class="st1" d="M428.85,75.99h6.71v5.5h-3.16c-1.34-1.41-2.54-2.97-3.55-4.64V75.99z"/>
	<rect x="436.23" y="69.23" class="st3" width="6.71" height="5.5"/>
	<rect x="428.85" y="69.23" class="st1" width="6.71" height="5.5"/>
	<path class="st1" d="M428.18,69.23v5.5h-0.48c-0.84-1.74-1.5-3.58-1.96-5.5H428.18z"/>
	<rect x="436.23" y="62.46" class="st1" width="6.71" height="5.5"/>
	<rect x="428.85" y="62.46" class="st1" width="6.71" height="5.5"/>
	<path class="st3" d="M425.01,62.46h3.17v5.49h-2.71c-0.3-1.62-0.47-3.28-0.47-4.99C425,62.8,425.01,62.63,425.01,62.46z"/>
	<rect x="436.23" y="55.69" class="st2" width="6.71" height="5.5"/>
	<rect x="428.85" y="55.69" class="st4" width="6.71" height="5.5"/>
	<path class="st1" d="M428.18,55.69v5.49h-3.12c0.12-1.89,0.44-3.73,0.94-5.49H428.18z"/>
	<polygon class="st1" points="445.54,81.49 443.83,81.49 443.83,75.99 449.57,75.99 	"/>
	<path class="st1" d="M462.07,71.01L462.07,71.01l-3.49,3.58v-5.36h6.17C463.76,69.62,462.84,70.22,462.07,71.01z"/>
	<rect x="451.2" y="69.23" class="st4" width="6.71" height="5.5"/>
	<rect x="443.83" y="69.23" class="st2" width="6.71" height="5.5"/>
	<rect x="458.58" y="62.46" class="st1" width="6.71" height="5.5"/>
	<rect x="451.2" y="62.46" class="st1" width="6.71" height="5.5"/>
	<rect x="443.83" y="62.46" class="st4" width="6.71" height="5.5"/>
	<rect x="458.58" y="55.69" class="st2" width="6.71" height="5.5"/>
	<rect x="451.2" y="55.69" class="st4" width="6.71" height="5.5"/>
	<rect x="443.83" y="55.69" class="st3" width="6.71" height="5.5"/>
</g>
</svg>
