<svg width="44" height="44" viewBox="0 0 44 44" fill="none" xmlns="http://www.w3.org/2000/svg">
<rect x="0.5" y="0.5" width="43" height="43" rx="21.5" fill="white"/>
<path d="M11.098 29V14.4545H20.2173V16.3438H13.2926V20.7756H19.7415V22.6577H13.2926V27.1108H20.3026V29H11.098ZM31.082 18.2756C31.0063 17.6032 30.6938 17.0824 30.1445 16.7131C29.5953 16.339 28.904 16.152 28.0707 16.152C27.4741 16.152 26.958 16.2467 26.5224 16.4361C26.0868 16.6207 25.7482 16.8764 25.5067 17.2031C25.27 17.5251 25.1516 17.892 25.1516 18.304C25.1516 18.6496 25.2321 18.9479 25.3931 19.1989C25.5588 19.4498 25.7743 19.6605 26.0394 19.831C26.3093 19.9967 26.5981 20.1364 26.9059 20.25C27.2137 20.3589 27.5096 20.4489 27.7937 20.5199L29.2141 20.8892C29.6781 21.0028 30.154 21.1567 30.6417 21.3509C31.1294 21.545 31.5816 21.8007 31.9982 22.1179C32.4149 22.4351 32.7511 22.8281 33.0067 23.2969C33.2672 23.7656 33.3974 24.3267 33.3974 24.9801C33.3974 25.804 33.1843 26.5355 32.7582 27.1747C32.3368 27.8139 31.7236 28.3182 30.9187 28.6875C30.1185 29.0568 29.1502 29.2415 28.0138 29.2415C26.9248 29.2415 25.9826 29.0687 25.1871 28.723C24.3917 28.3774 23.7691 27.8873 23.3192 27.2528C22.8694 26.6136 22.6209 25.8561 22.5735 24.9801H24.7752C24.8178 25.5057 24.9883 25.9437 25.2866 26.294C25.5896 26.6397 25.9755 26.8977 26.4442 27.0682C26.9177 27.2339 27.4362 27.3168 27.9996 27.3168C28.6199 27.3168 29.1715 27.2197 29.6545 27.0256C30.1422 26.8267 30.5257 26.5521 30.805 26.2017C31.0844 25.8466 31.2241 25.4323 31.2241 24.9588C31.2241 24.5279 31.101 24.1752 30.8548 23.9006C30.6133 23.6259 30.2842 23.3987 29.8675 23.2188C29.4556 23.0388 28.9892 22.8802 28.4684 22.7429L26.7496 22.2741C25.5849 21.9569 24.6616 21.4905 23.9798 20.875C23.3027 20.2595 22.9641 19.4451 22.9641 18.4318C22.9641 17.5937 23.1914 16.8622 23.646 16.2372C24.1005 15.6122 24.716 15.1269 25.4925 14.7812C26.2691 14.4309 27.145 14.2557 28.1204 14.2557C29.1052 14.2557 29.9741 14.4285 30.7269 14.7741C31.4845 15.1198 32.0811 15.5956 32.5167 16.2017C32.9523 16.803 33.1796 17.4943 33.1985 18.2756H31.082Z" fill="#493915"/>
<rect x="0.5" y="0.5" width="43" height="43" rx="21.5" stroke="black"/>
</svg>
