<svg width="30" height="30" viewBox="0 0 30 30" fill="none" xmlns="http://www.w3.org/2000/svg">
<rect width="30" height="30" rx="15" fill="#F7981D"/>
<path fill-rule="evenodd" clip-rule="evenodd" d="M8.33942 12.5875L13.3394 8.14307C14.2866 7.3011 15.714 7.3011 16.6612 8.14307L21.6612 12.5875C22.195 13.0619 22.5003 13.7419 22.5003 14.456V22.7084H23.3337C23.6788 22.7084 23.9587 22.9882 23.9587 23.3334C23.9587 23.6786 23.6788 23.9584 23.3337 23.9584H6.66699C6.32181 23.9584 6.04199 23.6786 6.04199 23.3334C6.04199 22.9882 6.32181 22.7084 6.66699 22.7084H7.50033V14.456C7.50033 13.7419 7.80569 13.0619 8.33942 12.5875ZM12.7087 12.5C12.7087 12.1549 12.9885 11.875 13.3337 11.875H16.667C17.0122 11.875 17.292 12.1549 17.292 12.5C17.292 12.8452 17.0122 13.125 16.667 13.125H13.3337C12.9885 13.125 12.7087 12.8452 12.7087 12.5ZM16.7103 14.375C17.4591 14.375 18.0834 14.375 18.5791 14.4416C19.1022 14.512 19.5746 14.6667 19.9541 15.0463C20.3337 15.4258 20.4884 15.8981 20.5587 16.4213C20.6254 16.917 20.6253 17.5413 20.6253 18.29L20.6253 22.7084H19.3753V18.3334C19.3753 17.53 19.374 16.9904 19.3199 16.5879C19.2682 16.2033 19.1788 16.0387 19.0702 15.9301C18.9616 15.8215 18.797 15.7322 18.4125 15.6805C18.01 15.6264 17.4703 15.625 16.667 15.625H13.3337C12.5303 15.625 11.9907 15.6264 11.5882 15.6805C11.2036 15.7322 11.039 15.8215 10.9304 15.9301C10.8218 16.0387 10.7325 16.2033 10.6808 16.5879C10.6267 16.9904 10.6253 17.53 10.6253 18.3334V22.7084H9.37532L9.37532 18.29C9.3753 17.5413 9.37528 16.917 9.44192 16.4213C9.51225 15.8981 9.66698 15.4258 10.0465 15.0463C10.4261 14.6667 10.8984 14.512 11.4216 14.4416C11.9172 14.375 12.5416 14.375 13.2903 14.375H16.7103ZM11.8753 17.9167C11.8753 17.5715 12.1551 17.2917 12.5003 17.2917H17.5003C17.8455 17.2917 18.1253 17.5715 18.1253 17.9167C18.1253 18.2619 17.8455 18.5417 17.5003 18.5417H12.5003C12.1551 18.5417 11.8753 18.2619 11.8753 17.9167ZM11.8753 20.4167C11.8753 20.0715 12.1551 19.7917 12.5003 19.7917H17.5003C17.8455 19.7917 18.1253 20.0715 18.1253 20.4167C18.1253 20.7619 17.8455 21.0417 17.5003 21.0417H12.5003C12.1551 21.0417 11.8753 20.7619 11.8753 20.4167Z" fill="white"/>
</svg>
